<svg width="17" height="22" viewBox="0 0 17 22" fill="currentColor" xmlns="http://www.w3.org/2000/svg">
<path fill-rule="evenodd" clip-rule="evenodd" d="M10.9943 0H8.22338L7.88368 2.75H4.8125C2.15463 2.75 0 4.90463 0 7.5625C0 10.2204 2.15463 12.375 4.8125 12.375H6.69471L6.18516 16.5H0V19.25H5.84545L5.50575 22H8.27665L8.61635 19.25H11.6875C14.3454 19.25 16.5 17.0954 16.5 14.4375C16.5 11.7796 14.3454 9.625 11.6875 9.625H9.80532L10.3149 5.5H16.5V2.75H10.6546L10.9943 0ZM7.54397 5.5H4.8125C3.67341 5.5 2.75 6.42341 2.75 7.5625C2.75 8.70159 3.67341 9.625 4.8125 9.625H7.03442L7.54397 5.5ZM9.46561 12.375L8.95606 16.5H11.6875C12.8266 16.5 13.75 15.5766 13.75 14.4375C13.75 13.2984 12.8266 12.375 11.6875 12.375H9.46561Z"/>
</svg>
