<svg width="13" height="14" viewBox="0 0 13 14" fill="currentColor" xmlns="http://www.w3.org/2000/svg">
<path d="M12.0714 5.60714H7.89286V1.42857C7.89286 0.915826 7.47703 0.5 6.96429 0.5H6.03571C5.52297 0.5 5.10714 0.915826 5.10714 1.42857V5.60714H0.928571C0.415826 5.60714 0 6.02297 0 6.53571V7.46429C0 7.97703 0.415826 8.39286 0.928571 8.39286H5.10714V12.5714C5.10714 13.0842 5.52297 13.5 6.03571 13.5H6.96429C7.47703 13.5 7.89286 13.0842 7.89286 12.5714V8.39286H12.0714C12.5842 8.39286 13 7.97703 13 7.46429V6.53571C13 6.02297 12.5842 5.60714 12.0714 5.60714Z"/>
</svg>
