<svg width="24" height="20" viewBox="0 0 24 20" fill="none" xmlns="http://www.w3.org/2000/svg">
<path d="M22.893 14.5995C23.3114 15.018 23.3114 15.6963 22.893 16.1147L19.3215 19.6855C18.6514 20.3555 17.4925 19.8859 17.4925 18.9278V17.1429H14.8681C14.7947 17.1429 14.722 17.1277 14.6546 17.0985C14.5873 17.0692 14.5266 17.0264 14.4765 16.9727L11.3267 13.5979L13.7076 11.0468L16.0639 13.5714H17.4925V11.7866C17.4925 10.8295 18.6506 10.3581 19.3215 11.0289L22.893 14.5995ZM0.885324 6.42857H4.63533L6.99162 8.95317L9.37256 6.40214L6.22274 3.02732C6.17261 2.97361 6.11198 2.93079 6.0446 2.90152C5.97723 2.87224 5.90455 2.85714 5.83109 2.85714H0.885324C0.589476 2.85714 0.349609 3.09701 0.349609 3.39286V5.89286C0.349609 6.18871 0.589476 6.42857 0.885324 6.42857ZM17.4925 6.42857V8.21357C17.4925 9.17161 18.6514 9.64125 19.3215 8.97121L22.893 5.40049C23.3114 4.98205 23.3114 4.30366 22.893 3.88527L19.3215 0.314685C18.6506 -0.356208 17.4925 0.115266 17.4925 1.07228V2.85714H14.8681C14.7947 2.85715 14.722 2.87226 14.6546 2.90154C14.5873 2.93081 14.5266 2.97363 14.4765 3.02732L4.63533 13.5714H0.885324C0.589476 13.5714 0.349609 13.8113 0.349609 14.1071V16.6071C0.349609 16.903 0.589476 17.1429 0.885324 17.1429H5.83109C5.97957 17.1429 6.1214 17.0812 6.22274 16.9727L16.0639 6.42857H17.4925Z" fill="#312A41"/>
</svg>
