<svg width="20" height="20" viewBox="0 0 20 20" fill="currentColor" xmlns="http://www.w3.org/2000/svg">
<path d="M10.0043 9.60781C9.48674 9.60781 9.06682 10.0273 9.06682 10.5453C9.11135 13.3676 8.74885 16.0883 7.98479 18.809C7.87815 19.1887 8.06877 20 8.88792 20C9.29729 20 9.67346 19.7297 9.78987 19.3156C10.3184 17.4441 11.0024 14.4168 10.9414 10.5453C10.9418 10.0277 10.5223 9.60781 10.0043 9.60781ZM9.97073 6.41523C7.57776 6.4125 5.90784 8.2539 5.94104 10.3641C5.97034 12.2367 5.79456 14.1105 5.41877 15.9324C5.3137 16.4395 5.64026 16.9359 6.1469 17.0402C6.65667 17.1445 7.14963 16.8191 7.25471 16.3121C7.65862 14.3555 7.84729 12.3441 7.81604 10.3348C7.80003 9.32109 8.59417 8.28437 9.94299 8.29023C11.166 8.30859 12.1754 9.28008 12.1938 10.457C12.2239 12.334 12.084 14.2199 11.7793 16.0645C11.6946 16.5746 12.0407 17.0574 12.5512 17.1418C13.3313 17.2719 13.5985 16.552 13.6285 16.3695C13.952 14.4152 14.0996 12.416 14.0688 10.4277C14.0344 8.24805 12.1961 6.44804 9.97073 6.41523ZM5.6469 5.64258C5.24456 5.31679 4.65588 5.37695 4.32815 5.77851C3.32737 7.00898 2.78948 8.56289 2.81448 10.1535C2.83752 11.6215 2.71799 13.0937 2.45862 14.5305C2.36721 15.0402 2.7051 15.5277 3.21487 15.6199C4.00041 15.7566 4.27229 15.0414 4.30432 14.8637C4.58518 13.3074 4.71448 11.7129 4.68948 10.1242C4.67112 8.95703 5.04885 7.86328 5.78323 6.96133C6.1094 6.55976 6.04846 5.96953 5.6469 5.64258ZM9.92307 3.20781C9.32112 3.19179 8.71721 3.26406 8.13479 3.40195C7.63127 3.52148 7.31956 4.02617 7.43831 4.53047C7.55784 5.03398 8.06331 5.34414 8.56682 5.22695C8.99846 5.125 9.44456 5.07969 9.89495 5.08281C12.8414 5.12695 15.275 7.48515 15.3199 10.3398C15.343 11.8195 15.2699 13.3129 15.102 14.7785C15.0434 15.293 15.4125 15.7582 15.9266 15.8168C16.5797 15.893 16.9231 15.3527 16.9649 14.9922C17.1424 13.4382 17.2192 11.8744 17.1949 10.3105C17.134 6.45312 13.8719 3.2664 9.92307 3.20781ZM19.7696 7.95195C19.6578 7.44726 19.1637 7.12383 18.652 7.23828C18.1465 7.35 17.827 7.85 17.9387 8.35586C18.1227 9.19219 18.1305 9.81719 18.1223 10.7621C18.118 11.2805 18.5344 11.7031 19.052 11.7074H19.0598C19.5742 11.7074 19.993 11.293 19.9973 10.7777C20.0043 9.91133 20.0129 9.05469 19.7696 7.95195ZM18.2024 4.4082C16.3 1.69765 13.1871 0.0503881 9.87503 0.000778676C7.14885 -0.0320338 4.62737 0.973044 2.75198 2.84922C0.940649 4.66289 -0.0355234 7.07187 0.00510157 9.63476L0.000414064 10.4734C-0.0148203 10.991 0.392211 11.423 0.909789 11.4379C0.918774 11.4387 0.928539 11.4387 0.937914 11.4387C1.4426 11.4387 1.8594 11.0363 1.87424 10.5285L1.88049 9.60508C1.84807 7.5543 2.62893 5.62617 4.07893 4.17539C5.59299 2.65976 7.6469 1.84453 9.84768 1.87617C12.5606 1.9164 15.1106 3.26523 16.6688 5.48515C16.966 5.90937 17.55 6.01055 17.9742 5.71406C18.3977 5.4164 18.5 4.83164 18.2024 4.4082Z" />
</svg>
