<svg width="19" height="20" viewBox="0 0 19 20" fill="none" xmlns="http://www.w3.org/2000/svg">
<path d="M14.3301 6.52832L17.5908 4.69141C17.4502 4.55078 17.2832 4.43652 17.0635 4.32227L10.9023 0.859375C10.3574 0.551758 9.79492 0.393555 9.25 0.393555C8.69629 0.393555 8.13379 0.551758 7.58887 0.859375L5.90137 1.80859L14.3301 6.52832ZM9.24121 9.36719L12.9766 7.27539L4.5918 2.54688L1.42773 4.32227C1.2168 4.43652 1.04102 4.55078 0.900391 4.69141L9.24121 9.36719ZM9.8916 19.6064C9.97949 19.5889 10.0586 19.5449 10.1465 19.501L16.9492 15.6865C17.8018 15.2031 18.2412 14.7021 18.2412 13.4453V6.41406C18.2412 6.19434 18.2236 6.00977 18.1797 5.83398L9.8916 10.5098V19.6064ZM8.59961 19.6064V10.5098L0.311523 5.83398C0.267578 6.00977 0.25 6.19434 0.25 6.41406V13.4453C0.25 14.7021 0.689453 15.2031 1.54199 15.6865L8.34473 19.501C8.42383 19.5449 8.51172 19.5889 8.59961 19.6064Z" fill="#312A41"/>
</svg>
