<svg width="24" height="24" viewBox="0 0 24 24" fill="currentColor" xmlns="http://www.w3.org/2000/svg">
<path fill-rule="evenodd" clip-rule="evenodd" d="M17.37 6.97997H15.82C15.32 5.34997 13.8 4.15997 12 4.15997C10.2 4.15997 8.67997 5.34997 8.17997 6.97997H6.62997C7.16997 4.50997 9.37997 2.65997 12 2.65997C14.62 2.65997 16.83 4.50997 17.37 6.97997Z" />
<path fill-rule="evenodd" clip-rule="evenodd" d="M21.79 6.97997L20.65 21.34H3.34996L2.20996 6.97997L6.62997 6.97997C6.53997 7.35997 6.49996 7.74997 6.49996 8.15997V10.02H7.99996V8.15997C7.99996 7.74997 8.05997 7.35997 8.17997 6.97997H15.82C15.94 7.35997 16 7.74997 16 8.15997V10.02H17.5V8.15997C17.5 7.74997 17.46 7.35997 17.37 6.97997L21.79 6.97997Z" />
</svg>
