<svg width="21" height="24" viewBox="0 0 21 24" fill="currentColor" xmlns="http://www.w3.org/2000/svg">
<path d="M20.4375 7.5C20.7469 7.5 21 7.24687 21 6.9375V5.0625C21 4.75313 20.7469 4.5 20.4375 4.5H19.5V2.25C19.5 1.00781 18.4922 0 17.25 0H2.25C1.00781 0 0 1.00781 0 2.25V21.75C0 22.9922 1.00781 24 2.25 24H17.25C18.4922 24 19.5 22.9922 19.5 21.75V19.5H20.4375C20.7469 19.5 21 19.2469 21 18.9375V17.0625C21 16.7531 20.7469 16.5 20.4375 16.5H19.5V13.5H20.4375C20.7469 13.5 21 13.2469 21 12.9375V11.0625C21 10.7531 20.7469 10.5 20.4375 10.5H19.5V7.5H20.4375ZM9.75 6C11.4047 6 12.75 7.34531 12.75 9C12.75 10.6547 11.4047 12 9.75 12C8.09531 12 6.75 10.6547 6.75 9C6.75 7.34531 8.09531 6 9.75 6ZM15 17.1C15 17.5969 14.5313 18 13.95 18H5.55C4.96875 18 4.5 17.5969 4.5 17.1V16.2C4.5 14.7094 5.91094 13.5 7.65 13.5H7.88437C8.46094 13.7391 9.08906 13.875 9.75 13.875C10.4109 13.875 11.0438 13.7391 11.6156 13.5H11.85C13.5891 13.5 15 14.7094 15 16.2V17.1Z" />
</svg>
