<svg width="25" height="16" viewBox="0 0 25 16" fill="none" xmlns="http://www.w3.org/2000/svg">
<path d="M16.9805 0.497314H13.625C13.3125 0.497314 13.0117 0.614502 12.7813 0.82544L8.94141 4.34106C8.9375 4.34497 8.93359 4.35278 8.92969 4.35669C8.28125 4.96606 8.29297 5.93872 8.84766 6.54419C9.34375 7.08716 10.3867 7.23169 11.0391 6.64966C11.043 6.64575 11.0508 6.64575 11.0547 6.64185L14.1758 3.78247C14.4297 3.552 14.8281 3.56763 15.0586 3.82153C15.293 4.07544 15.2734 4.46997 15.0195 4.70435L14 5.63794L19.6875 10.2551C19.8008 10.3489 19.9023 10.4504 19.9961 10.5559V2.99731L17.8633 0.864502C17.6328 0.630127 17.3125 0.497314 16.9805 0.497314ZM21.25 3.00513V11.7512C21.25 12.4426 21.8086 13.0012 22.5 13.0012H25V3.00513H21.25ZM23.125 11.7512C22.7812 11.7512 22.5 11.47 22.5 11.1262C22.5 10.7825 22.7812 10.5012 23.125 10.5012C23.4688 10.5012 23.75 10.7825 23.75 11.1262C23.75 11.47 23.4688 11.7512 23.125 11.7512ZM0 12.9973H2.5C3.19141 12.9973 3.75 12.4387 3.75 11.7473V3.00513H0V12.9973ZM1.875 10.5012C2.21875 10.5012 2.5 10.7825 2.5 11.1262C2.5 11.47 2.21875 11.7512 1.875 11.7512C1.53125 11.7512 1.25 11.47 1.25 11.1262C1.25 10.7786 1.53125 10.5012 1.875 10.5012ZM18.9023 11.2278L13.0703 6.49341L11.8984 7.56763C10.7383 8.62622 8.96094 8.52466 7.92578 7.39575C6.875 6.24731 6.95703 4.46997 8.09766 3.4231L11.293 0.497314H8.01953C7.6875 0.497314 7.37109 0.630127 7.13672 0.864502L5 2.99731V11.7434H5.71484L9.25 14.9426C10.3203 15.8137 11.8945 15.6497 12.7656 14.5793L12.7734 14.5715L13.4727 15.177C14.0937 15.6848 15.0117 15.5872 15.5156 14.9661L16.7422 13.4583L16.9531 13.6301C17.4883 14.0637 18.2773 13.9856 18.7109 13.4465L19.082 12.9895C19.5195 12.4504 19.4375 11.6653 18.9023 11.2278Z" fill="#312A41"/>
</svg>
