<svg width="25" height="24" viewBox="0 0 25 24" fill="currentColor" xmlns="http://www.w3.org/2000/svg">
<path d="M17.4865 15.4575C17.27 15.7059 17.0281 15.9309 16.7412 16.0973V17.1727C19.8593 17.6105 21.9912 18.4875 21.9912 19.5C21.9912 20.9498 17.6262 22.125 12.2412 22.125C6.85621 22.125 2.49121 20.9498 2.49121 19.5C2.49121 18.4875 4.62309 17.6109 7.74121 17.1727V16.0973C7.45434 15.9309 7.21246 15.7059 6.9959 15.4575C3.00074 16.1878 0.241211 17.7211 0.241211 19.5C0.241211 21.9853 5.61402 24 12.2412 24C18.8684 24 24.2412 21.9853 24.2412 19.5C24.2412 17.7211 21.4817 16.1878 17.4865 15.4575ZM12.2412 6C13.8982 6 15.2412 4.65703 15.2412 3C15.2412 1.34297 13.8982 0 12.2412 0C10.5842 0 9.24121 1.34297 9.24121 3C9.24121 4.65703 10.5842 6 12.2412 6ZM9.24121 15V19.5C9.24121 20.3283 9.91293 21 10.7412 21H13.7412C14.5695 21 15.2412 20.3283 15.2412 19.5V15C16.0695 15 16.7412 14.3283 16.7412 13.5V9C16.7412 7.75734 15.7339 6.75 14.4912 6.75H13.9381C13.4192 6.98578 12.8478 7.125 12.2412 7.125C11.6346 7.125 11.0632 6.98578 10.5443 6.75H9.99121C8.74855 6.75 7.74121 7.75734 7.74121 9V13.5C7.74121 14.3283 8.41293 15 9.24121 15Z"/>
</svg>
