<svg width="26" height="26" viewBox="0 0 26 26" fill="none" xmlns="http://www.w3.org/2000/svg">
<path d="M12.2254 20.9063H22.5097C24.5839 20.9063 25.6548 19.8162 25.6548 17.7323V8.97226C25.6548 7.6216 25.4812 7.00415 24.6418 6.14552L19.5961 1.02265C18.7761 0.192952 18.1008 0 16.8852 0H12.2254C10.1608 0 9.08026 1.09018 9.08026 3.18371V17.7323C9.08026 19.8162 10.1608 20.9063 12.2254 20.9063ZM12.3894 18.9768C11.4632 18.9768 11.0001 18.4944 11.0001 17.6069V3.29948C11.0001 2.42155 11.4632 1.92952 12.399 1.92952H16.4896V7.17781C16.4896 8.57671 17.1746 9.25204 18.5638 9.25204H23.735V17.6069C23.735 18.4944 23.2719 18.9768 22.3361 18.9768H12.3894ZM18.7472 7.56371C18.342 7.56371 18.1683 7.39006 18.1683 6.99451V2.18036L23.4745 7.56371H18.7472ZM20.7635 11.7797H13.7979C13.4313 11.7797 13.1708 12.0402 13.1708 12.3779C13.1708 12.7252 13.4313 12.9953 13.7979 12.9953H20.7635C21.1108 12.9953 21.3713 12.7252 21.3713 12.3779C21.3713 12.0402 21.1108 11.7797 20.7635 11.7797ZM20.7635 15.002H13.7979C13.4313 15.002 13.1708 15.2721 13.1708 15.6195C13.1708 15.9571 13.4313 16.2176 13.7979 16.2176H20.7635C21.1108 16.2176 21.3713 15.9571 21.3713 15.6195C21.3713 15.2721 21.1108 15.002 20.7635 15.002Z" fill="#312A41"/>
<path d="M2.03807 14.2782L1.73496 14.5904L1.70962 14.5757L1.69642 14.6301L1.5911 14.7386L1.66038 14.7786L1.55164 15.2266C1.5127 15.3871 1.5 15.545 1.5 15.7091V20.128C1.5 20.5775 1.57606 20.9549 1.77279 21.2758C1.96803 21.5943 2.24773 21.7998 2.5361 21.9682L2.5382 21.9694L6.68869 24.3667L6.69043 24.3677C6.74239 24.3974 6.85555 24.4613 6.99339 24.4897L7.38255 24.5699V24.6135L7.48841 24.5917L7.59427 24.6135V24.5699L7.98343 24.4897C8.10853 24.4639 8.22254 24.4022 8.25829 24.3829C8.26211 24.3808 8.26504 24.3792 8.26699 24.3782L8.2777 24.3727L8.28813 24.3667L12.4386 21.9694L12.4407 21.9682C12.7291 21.7998 13.0088 21.5943 13.204 21.2758C13.4008 20.9549 13.4768 20.5775 13.4768 20.128V15.7091C13.4768 15.545 13.4641 15.3871 13.4252 15.2266L13.3161 14.7774L13.3847 14.7376L13.2804 14.6301L13.2672 14.5757L13.2419 14.5904L12.9388 14.2782C12.8088 14.1443 12.6631 14.0448 12.502 13.9579L8.75056 11.786C8.75039 11.7859 8.75021 11.7858 8.75004 11.7857C8.3532 11.555 7.92439 11.4255 7.49109 11.4255C7.05309 11.4255 6.62425 11.5547 6.22672 11.7857C6.22657 11.7858 6.22641 11.7859 6.22626 11.786L5.19735 12.3821L4.44899 12.8157L4.44995 12.8163L4.39882 12.8459L2.47152 13.9598C2.32687 14.0407 2.17234 14.1399 2.03807 14.2782Z" fill="#312A41" stroke="#F4F4F4"/>
</svg>
