<svg width="23" height="20" viewBox="0 0 23 20" fill="currentColor" xmlns="http://www.w3.org/2000/svg">
<path d="M15.7296 3.24673L19.2538 6.77085C19.4022 6.91932 19.4022 7.16155 19.2538 7.31002L10.7208 15.8429L7.09514 16.2454C6.61067 16.3001 6.20043 15.8898 6.25513 15.4054L6.65755 11.7796L15.1905 3.24673C15.3389 3.09826 15.5812 3.09826 15.7296 3.24673ZM22.059 2.35202L20.1524 0.445399C19.5585 -0.148467 18.5935 -0.148467 17.9957 0.445399L16.6126 1.82848C16.4642 1.97695 16.4642 2.21918 16.6126 2.36765L20.1367 5.89178C20.2852 6.04024 20.5274 6.04024 20.6759 5.89178L22.059 4.50869C22.6529 3.91092 22.6529 2.94589 22.059 2.35202ZM15.0029 13.5222V17.4995H2.50049V4.99707H11.4788C11.6038 4.99707 11.721 4.94628 11.8109 4.86032L13.3737 3.29752C13.6706 3.00059 13.4597 2.49658 13.0416 2.49658H1.87537C0.840008 2.49658 0 3.33659 0 4.37195V18.1246C0 19.16 0.840008 20 1.87537 20H15.6281C16.6634 20 17.5034 19.16 17.5034 18.1246V11.9594C17.5034 11.5413 16.9994 11.3342 16.7025 11.6273L15.1397 13.1901C15.0537 13.2799 15.0029 13.3971 15.0029 13.5222Z" />
</svg>
