<svg width="23" height="22" viewBox="0 0 23 22" fill="currentColor" xmlns="http://www.w3.org/2000/svg">
<path d="M11.6548 22C17.6868 22 22.6655 17.0213 22.6655 11C22.6655 4.97872 17.6761 0 11.6442 0C5.62293 0 0.654846 4.97872 0.654846 11C0.654846 17.0213 5.63357 22 11.6548 22ZM11.6442 12.734C9.5591 12.7234 7.94208 10.9787 7.94208 8.67021C7.9208 6.5 9.56974 4.69149 11.6442 4.69149C13.7187 4.69149 15.3463 6.5 15.3463 8.67021C15.3463 10.9787 13.7293 12.7553 11.6442 12.734ZM11.6442 20.1809C9.26123 20.1809 6.72931 19.1915 5.12293 17.4681C6.34634 15.6383 8.77187 14.5745 11.6442 14.5745C14.4846 14.5745 16.9314 15.617 18.1655 17.4681C16.5591 19.1915 14.0272 20.1809 11.6442 20.1809Z"/>
</svg>
