<svg width="16" height="20" viewBox="0 0 16 20" fill="currentColor" xmlns="http://www.w3.org/2000/svg">
<path d="M8.64478 9.98535L15.2854 16.626C15.7444 17.085 15.7444 17.8272 15.2854 18.2813L14.1819 19.3848C13.7229 19.8438 12.9807 19.8438 12.5266 19.3848L7.8147 14.6826L3.10767 19.3896C2.64868 19.8486 1.90649 19.8486 1.45239 19.3896L0.343994 18.2861C-0.11499 17.8272 -0.11499 17.085 0.343994 16.6309L6.98462 9.99024C7.4436 9.52637 8.18579 9.52637 8.64478 9.98535ZM6.98462 0.610352L0.343994 7.25098C-0.11499 7.70996 -0.11499 8.45215 0.343994 8.90625L1.44751 10.0098C1.90649 10.4688 2.64868 10.4688 3.10278 10.0098L7.80981 5.30273L12.5168 10.0098C12.9758 10.4688 13.718 10.4688 14.1721 10.0098L15.2756 8.90625C15.7346 8.44727 15.7346 7.70508 15.2756 7.25098L8.63501 0.610352C8.18579 0.151367 7.4436 0.151367 6.98462 0.610352Z"/>
</svg>
