<svg width="23" height="22" viewBox="0 0 23 22" fill="currentColor" xmlns="http://www.w3.org/2000/svg">
<path d="M11.6296 22C17.6616 22 22.6403 17.0213 22.6403 11C22.6403 4.97872 17.6509 0 11.619 0C5.59772 0 0.629639 4.97872 0.629639 11C0.629639 17.0213 5.60836 22 11.6296 22ZM11.6296 19.8085C6.74666 19.8085 2.8424 15.883 2.8424 11C2.8424 6.11702 6.74666 2.20213 11.619 2.20213C16.502 2.20213 20.4275 6.11702 20.4381 11C20.4488 15.883 16.5126 19.8085 11.6296 19.8085ZM11.619 16.9787C11.8956 16.9787 12.1084 16.7766 12.1084 16.4894V15.7766C13.8318 15.617 15.1296 14.6277 15.1296 13.0106C15.1296 11.5638 14.1935 10.7128 12.3424 10.3723L12.1084 10.3191V7.68085C12.7892 7.79787 13.2573 8.20213 13.4594 8.82979C13.619 9.18085 13.8424 9.38298 14.2254 9.38298C14.6509 9.38298 14.9488 9.09574 14.9488 8.69149C14.9488 8.56383 14.9169 8.44681 14.8956 8.31915C14.6084 7.2234 13.5339 6.43617 12.1084 6.28723V5.57447C12.1084 5.28723 11.8956 5.08511 11.619 5.08511C11.3424 5.08511 11.1403 5.28723 11.1403 5.57447V6.28723C9.45943 6.45745 8.26794 7.47872 8.26794 8.95745C8.26794 10.3404 9.19347 11.1489 10.9594 11.5532L11.1403 11.5957V14.4043C10.2786 14.2766 9.77857 13.8191 9.60836 13.1915C9.45943 12.8085 9.21475 12.617 8.85304 12.617C8.40623 12.617 8.119 12.9149 8.119 13.3404C8.119 13.4574 8.15092 13.5745 8.18283 13.7128C8.49134 14.8404 9.619 15.6277 11.1403 15.766V16.4894C11.1403 16.7872 11.3424 16.9787 11.619 16.9787ZM11.1403 10.0745L11.0658 10.0532C10.2147 9.80851 9.82113 9.43617 9.82113 8.8617C9.82113 8.2766 10.3211 7.79787 11.1403 7.67021V10.0745ZM12.1084 11.8404L12.3105 11.883C13.236 12.1383 13.5658 12.5213 13.5658 13.1277C13.5658 13.7979 13.0764 14.2872 12.1084 14.4043V11.8404Z" />
</svg>
