<svg width="22" height="25" viewBox="0 0 22 25" fill="currentColor" xmlns="http://www.w3.org/2000/svg">
<path d="M8.86523 19.0459H18.2344C20.124 19.0459 21.0996 18.0527 21.0996 16.1543V8.28809H14.5078C13.4092 8.28809 12.8818 7.76074 12.8818 6.66211V0H8.86523C6.98438 0 6 0.993164 6 2.90039V16.1543C6 18.0527 6.98438 19.0459 8.86523 19.0459ZM14.6748 7.00488H21.0117C20.959 6.60059 20.6689 6.22266 20.2119 5.75684L15.4043 0.887695C14.9648 0.439453 14.5693 0.140625 14.165 0.0878906V6.49512C14.1738 6.83789 14.3408 7.00488 14.6748 7.00488ZM13.5498 9.94922C13.9541 9.94922 14.2881 10.2568 14.2881 10.6611V13.5615L14.2266 14.8711L14.8857 14.1855L15.6064 13.4561C15.7383 13.3242 15.9141 13.2275 16.0986 13.2275C16.4854 13.2275 16.7754 13.5 16.7754 13.8779C16.7754 14.0801 16.6875 14.2471 16.5381 14.3789L14.1211 16.6113C13.9189 16.7871 13.7607 16.8662 13.5498 16.8662C13.3477 16.8662 13.1807 16.7871 12.9873 16.6113L10.5615 14.3789C10.4121 14.2471 10.3242 14.0801 10.3242 13.8779C10.3242 13.5 10.6143 13.2275 11.001 13.2275C11.1768 13.2275 11.3613 13.3242 11.4932 13.4561L12.2139 14.1855L12.8818 14.8711L12.8115 13.5615V10.6611C12.8115 10.2568 13.1455 9.94922 13.5498 9.94922Z" />
<path d="M13.5498 9.94922C13.9541 9.94922 14.2881 10.2568 14.2881 10.6611V13.5615L14.2266 14.8711L14.8857 14.1855L15.6064 13.4561C15.7383 13.3242 15.9141 13.2275 16.0986 13.2275C16.4854 13.2275 16.7754 13.5 16.7754 13.8779C16.7754 14.0801 16.6875 14.2471 16.5381 14.3789L14.1211 16.6113C13.9189 16.7871 13.7607 16.8662 13.5498 16.8662C13.3477 16.8662 13.1807 16.7871 12.9873 16.6113L10.5615 14.3789C10.4121 14.2471 10.3242 14.0801 10.3242 13.8779C10.3242 13.5 10.6143 13.2275 11.001 13.2275C11.1768 13.2275 11.3613 13.3242 11.4932 13.4561L12.2139 14.1855L12.8818 14.8711L12.8115 13.5615V10.6611C12.8115 10.2568 13.1455 9.94922 13.5498 9.94922Z" />
<path d="M5.39502 19.3377L5.39507 19.3377L5.39415 19.3308L5.38617 19.2703H11.2702C11.798 19.2703 12.2439 19.0763 12.5648 18.7012C12.8698 18.3446 13.0247 17.8683 13.0882 17.3584C13.0882 17.3581 13.0882 17.3578 13.0883 17.3575L13.475 14.3463C13.4751 14.346 13.4751 14.3456 13.4752 14.3453C13.486 14.2632 13.5 14.1344 13.5 14.0341C13.5 13.7585 13.4168 13.4782 13.2154 13.2621C13.0099 13.0417 12.7278 12.9383 12.432 12.9383H4.60054L4.57346 12.7253L4.57339 12.7248C4.53649 12.437 4.45819 12.1047 4.219 11.8532C3.9623 11.5834 3.61473 11.5 3.25645 11.5H1.48537C0.87886 11.5 0.5 12.0669 0.5 12.5717C0.5 13.079 0.875808 13.6494 1.48537 13.6494H2.66046L3.40576 19.5786C3.40576 19.5786 3.40577 19.5787 3.40578 19.5787C3.40578 19.5788 3.40579 19.5789 3.4058 19.5789C3.46914 20.0853 3.6227 20.5593 3.92712 20.9141C4.23854 21.2771 4.66761 21.4681 5.17459 21.4785C4.59662 21.699 4.23838 22.3173 4.23838 22.9468C4.23838 23.7321 4.79589 24.5 5.642 24.5C6.4881 24.5 7.04561 23.7321 7.04561 22.9468C7.04561 22.3178 6.68786 21.6999 6.11058 21.4789H9.94428C9.36714 21.6993 9.0043 22.315 9.0043 22.9468C9.0043 23.7361 9.57036 24.5 10.4131 24.5C11.2626 24.5 11.8115 23.7282 11.8115 22.9468C11.8115 22.3206 11.4589 21.7004 10.8814 21.4789H11.2289C11.7967 21.4789 12.1936 20.9808 12.1936 20.4373C12.1936 19.896 11.7932 19.4017 11.2289 19.4017H5.40678C5.40238 19.3852 5.39812 19.364 5.39502 19.3377Z" stroke="#F4F4F4"/>
</svg>
