<svg width="20" height="22" viewBox="0 0 20 22" fill="none" xmlns="http://www.w3.org/2000/svg">
<path d="M17.1875 0H2.0625C0.9625 0 0 0.9625 0 2.0625V19.9375C0 21.0375 0.9625 22 2.0625 22H17.1875C18.2875 22 19.25 21.0375 19.25 19.9375V2.0625C19.25 0.9625 18.2875 0 17.1875 0ZM5.5 18.7C5.5 18.975 5.225 19.25 4.95 19.25H3.3C3.025 19.25 2.75 18.975 2.75 18.7V17.05C2.75 16.775 3.025 16.5 3.3 16.5H4.95C5.225 16.5 5.5 16.775 5.5 17.05V18.7ZM5.5 13.2C5.5 13.475 5.225 13.75 4.95 13.75H3.3C3.025 13.75 2.75 13.475 2.75 13.2V11.55C2.75 11.275 3.025 11 3.3 11H4.95C5.225 11 5.5 11.275 5.5 11.55V13.2ZM11 18.7C11 18.975 10.725 19.25 10.45 19.25H8.8C8.525 19.25 8.25 18.975 8.25 18.7V17.05C8.25 16.775 8.525 16.5 8.8 16.5H10.45C10.725 16.5 11 16.775 11 17.05V18.7ZM11 13.2C11 13.475 10.725 13.75 10.45 13.75H8.8C8.525 13.75 8.25 13.475 8.25 13.2V11.55C8.25 11.275 8.525 11 8.8 11H10.45C10.725 11 11 11.275 11 11.55V13.2ZM16.5 18.7C16.5 18.975 16.225 19.25 15.95 19.25H14.3C14.025 19.25 13.75 18.975 13.75 18.7V11.55C13.75 11.275 14.025 11 14.3 11H15.95C16.225 11 16.5 11.275 16.5 11.55V18.7ZM16.5 7.7C16.5 7.975 16.225 8.25 15.95 8.25H3.3C3.025 8.25 2.75 7.975 2.75 7.7V3.3C2.75 3.025 3.025 2.75 3.3 2.75H15.95C16.225 2.75 16.5 3.025 16.5 3.3V7.7Z" fill="#312A41"/>
</svg>
