<svg width="20" height="22" viewBox="0 0 20 22" fill="currentColor" xmlns="http://www.w3.org/2000/svg">
<path d="M9.72461 11C12.7625 11 15.2246 8.53789 15.2246 5.5C15.2246 2.46211 12.7625 0 9.72461 0C6.68672 0 4.22461 2.46211 4.22461 5.5C4.22461 8.53789 6.68672 11 9.72461 11ZM13.841 12.4008L11.7871 20.625L10.4121 14.7812L11.7871 12.375H7.66211L9.03711 14.7812L7.66211 20.625L5.6082 12.4008C2.54453 12.5469 0.0996094 15.052 0.0996094 18.15V19.9375C0.0996094 21.0762 1.02344 22 2.16211 22H17.2871C18.4258 22 19.3496 21.0762 19.3496 19.9375V18.15C19.3496 15.052 16.9047 12.5469 13.841 12.4008Z" />
</svg>
