<svg width="25" height="20" viewBox="0 0 25 20" fill="currentColor" xmlns="http://www.w3.org/2000/svg">
<path d="M24.375 17.5H21.25V4.4316C21.25 3.36676 20.409 2.49996 19.375 2.49996H15V4.99996H18.75V20H24.375C24.7203 20 25 19.7203 25 19.375V18.125C25 17.7796 24.7203 17.5 24.375 17.5ZM12.1969 0.0394151L4.69687 1.98238C4.14023 2.12652 3.75 2.64449 3.75 3.23902V17.5H0.625C0.279687 17.5 0 17.7796 0 18.125V19.375C0 19.7203 0.279687 20 0.625 20H13.75V1.29606C13.75 0.453087 12.9859 -0.165272 12.1969 0.0394151ZM10.3125 11.25C9.79492 11.25 9.375 10.6902 9.375 9.99996C9.375 9.30973 9.79492 8.74996 10.3125 8.74996C10.8301 8.74996 11.25 9.30973 11.25 9.99996C11.25 10.6902 10.8301 11.25 10.3125 11.25Z" />
</svg>
