<svg width="25" height="24" viewBox="0 0 25 24" fill="none" xmlns="http://www.w3.org/2000/svg">
<path d="M11.7648 7.15194L14.1202 7.7726C14.2002 7.7913 14.2718 7.83591 14.3238 7.89948C14.3759 7.96306 14.4055 8.04204 14.408 8.12416C14.408 8.32381 14.2305 8.48874 14.0122 8.48874H12.467C12.3005 8.48826 12.1356 8.45585 11.9813 8.39326C11.7539 8.29777 11.4918 8.31947 11.3173 8.48006L10.4926 9.23961C10.4545 9.273 10.4216 9.31191 10.395 9.35506C10.3609 9.41091 10.3383 9.47294 10.3283 9.53758C10.3183 9.60222 10.3213 9.6682 10.3369 9.73171C10.3526 9.79521 10.3806 9.85499 10.4195 9.9076C10.4584 9.9602 10.5073 10.0046 10.5634 10.0382C11.0201 10.3123 11.5314 10.4827 12.0612 10.5374V11.3056C12.0612 11.6875 12.401 12 12.8151 12H13.569C13.9835 12 14.3234 11.6875 14.3234 11.3056V10.5417C15.7526 10.3854 16.8338 9.19621 16.6454 7.80732C16.5087 6.80905 15.6706 6.01478 14.6246 5.73701L12.2691 5.11635C12.1891 5.09764 12.1175 5.05303 12.0655 4.98946C12.0134 4.92588 11.9839 4.8469 11.9813 4.76478C11.9813 4.56513 12.1589 4.4002 12.3772 4.4002H13.9223C14.0894 4.40046 14.2549 4.43288 14.4097 4.49569C14.6367 4.59117 14.8993 4.56947 15.0738 4.40888L15.8984 3.64933C15.9353 3.61666 15.9671 3.57861 15.9926 3.53649C16.027 3.48066 16.0499 3.41858 16.0601 3.35384C16.0703 3.2891 16.0676 3.22297 16.0521 3.15929C16.0366 3.09561 16.0086 3.03562 15.9698 2.98281C15.931 2.93 15.8821 2.8854 15.826 2.85159C15.3691 2.57752 14.8576 2.40712 14.3277 2.35246V1.58336C14.3277 1.20142 13.9883 0.888916 13.5738 0.888916H12.8199C12.4054 0.888916 12.066 1.20142 12.066 1.58336V2.34725C10.6385 2.5035 9.55512 3.69274 9.74349 5.08162C9.87977 6.07989 10.7205 6.87416 11.7648 7.15194ZM24.5343 15.1294C24.0221 14.665 23.2235 14.6953 22.6853 15.1294L18.6749 18.3368C18.1826 18.7318 17.5699 18.9462 16.9388 18.9445H11.8056C11.6214 18.9445 11.4447 18.8713 11.3145 18.7411C11.1843 18.6108 11.1111 18.4342 11.1111 18.25C11.1111 18.0658 11.1843 17.8892 11.3145 17.759C11.4447 17.6287 11.6214 17.5556 11.8056 17.5556H15.2036C15.8937 17.5556 16.5365 17.0825 16.6467 16.4011C16.6603 16.3228 16.667 16.2435 16.6667 16.1641C16.666 15.7962 16.5193 15.4436 16.259 15.1837C15.9986 14.9238 15.6457 14.7778 15.2778 14.7778H8.33333C7.16216 14.7781 6.02668 15.181 5.11719 15.9189L3.09896 17.5556H0.694444C0.510266 17.5556 0.333632 17.6287 0.203398 17.759C0.0731645 17.8892 0 18.0658 0 18.25L0 22.4167C0 22.6009 0.0731645 22.7775 0.203398 22.9077C0.333632 23.038 0.510266 23.1111 0.694444 23.1111H16.1793C16.8102 23.1116 17.4225 22.8973 17.9154 22.5035L24.4792 17.2518C24.6371 17.1255 24.7655 16.9662 24.8554 16.7852C24.9454 16.6041 24.9948 16.4056 25.0001 16.2035C25.0054 16.0014 24.9665 15.8005 24.8861 15.615C24.8057 15.4295 24.6858 15.2637 24.5347 15.1294H24.5343Z" fill="#312A41"/>
</svg>
