<svg width="19" height="24" viewBox="0 0 19 24" fill="none" xmlns="http://www.w3.org/2000/svg">
<path d="M8.57946 23.5158C1.76861 13.6421 0.504395 12.6287 0.504395 9C0.504395 4.02942 4.53382 0 9.50439 0C14.475 0 18.5044 4.02942 18.5044 9C18.5044 12.6287 17.2402 13.6421 10.4293 23.5158C9.98238 24.1614 9.02636 24.1614 8.57946 23.5158ZM9.50439 12.75C11.5755 12.75 13.2544 11.0711 13.2544 9C13.2544 6.92892 11.5755 5.25 9.50439 5.25C7.43331 5.25 5.75439 6.92892 5.75439 9C5.75439 11.0711 7.43331 12.75 9.50439 12.75Z" fill="#312A41"/>
</svg>
