<svg width="24" height="18" viewBox="0 0 24 18" fill="currentColor"xmlns="http://www.w3.org/2000/svg">
<path d="M22.8 0.616577H1.2C0.537375 0.616577 0 1.15395 0 1.81658V16.2166C0 16.8792 0.537375 17.4166 1.2 17.4166H22.8C23.4626 17.4166 24 16.8792 24 16.2166V1.81658C24 1.15395 23.4626 0.616577 22.8 0.616577ZM6.6 11.7121V12.3166C6.6 12.4823 6.46575 12.6166 6.3 12.6166H5.7C5.53425 12.6166 5.4 12.4823 5.4 12.3166V11.7057C4.97662 11.684 4.56487 11.5362 4.22362 11.2801C4.07737 11.1702 4.06987 10.9512 4.20225 10.8248L4.64287 10.4045C4.74675 10.3055 4.90125 10.301 5.02275 10.3771C5.16787 10.4678 5.3325 10.5166 5.5035 10.5166H6.55762C6.80137 10.5166 7.00012 10.2946 7.00012 10.022C7.00012 9.79883 6.86475 9.60233 6.67125 9.54458L4.98375 9.03833C4.28662 8.82908 3.7995 8.16008 3.7995 7.4112C3.7995 6.4917 4.51387 5.7447 5.39962 5.72108V5.11658C5.39962 4.95083 5.53387 4.81658 5.69962 4.81658H6.29962C6.46537 4.81658 6.59962 4.95083 6.59962 5.11658V5.72745C7.023 5.7492 7.43475 5.89658 7.776 6.15308C7.92225 6.26295 7.92975 6.48195 7.79737 6.60833L7.35675 7.0287C7.25287 7.1277 7.09837 7.1322 6.97687 7.05608C6.83175 6.96495 6.66712 6.91658 6.49612 6.91658H5.442C5.19825 6.91658 4.9995 7.13858 4.9995 7.4112C4.9995 7.63433 5.13487 7.83083 5.32837 7.88858L7.01587 8.39483C7.713 8.60408 8.20012 9.27308 8.20012 10.022C8.20012 10.9418 7.48575 11.6885 6.6 11.7121ZM15.6 11.1166C15.6 11.2823 15.4657 11.4166 15.3 11.4166H11.1C10.9342 11.4166 10.8 11.2823 10.8 11.1166V10.5166C10.8 10.3508 10.9342 10.2166 11.1 10.2166H15.3C15.4657 10.2166 15.6 10.3508 15.6 10.5166V11.1166ZM21.6 11.1166C21.6 11.2823 21.4657 11.4166 21.3 11.4166H18.3C18.1342 11.4166 18 11.2823 18 11.1166V10.5166C18 10.3508 18.1342 10.2166 18.3 10.2166H21.3C21.4657 10.2166 21.6 10.3508 21.6 10.5166V11.1166ZM21.6 7.51658C21.6 7.68233 21.4657 7.81658 21.3 7.81658H11.1C10.9342 7.81658 10.8 7.68233 10.8 7.51658V6.91658C10.8 6.75083 10.9342 6.61658 11.1 6.61658H21.3C21.4657 6.61658 21.6 6.75083 21.6 6.91658V7.51658Z" />
</svg>
