<svg width="29" height="28" viewBox="0 0 29 28" fill="none" xmlns="http://www.w3.org/2000/svg">
<g clip-path="url(#clip0_18_4680)">
<path d="M14.5111 13.4951C16.1312 13.4951 17.4997 12.06 17.4997 10.2032C17.4997 8.39075 16.1238 7 14.5111 7C12.8984 7 11.5225 8.41295 11.5299 10.218C11.5299 12.06 12.891 13.4951 14.5111 13.4951ZM5.94465 13.6653C7.3576 13.6653 8.54861 12.4077 8.54861 10.795C8.54861 9.21189 7.3502 8.00608 5.94465 8.00608C4.5465 8.00608 3.34069 9.23408 3.34808 10.8098C3.34808 12.4077 4.5391 13.6653 5.94465 13.6653ZM23.0553 13.6653C24.4609 13.6653 25.6519 12.4077 25.6519 10.8098C25.6593 9.23408 24.4535 8.00608 23.0553 8.00608C21.6572 8.00608 20.4514 9.21189 20.4514 10.795C20.4514 12.4077 21.6498 13.6653 23.0553 13.6653ZM1.86856 20.3823H7.41678C6.62523 19.2505 7.48336 17.0164 9.15522 15.6996C8.34148 15.1744 7.27622 14.7897 5.94465 14.7897C2.63791 14.7897 0.5 17.2235 0.5 19.2283C0.5 19.9606 0.869881 20.3823 1.86856 20.3823ZM27.1314 20.3823C28.1301 20.3823 28.5 19.9606 28.5 19.2283C28.5 17.2235 26.3621 14.7897 23.0553 14.7897C21.7238 14.7897 20.6659 15.1744 19.8522 15.6996C21.524 17.0164 22.3822 19.2505 21.5906 20.3823H27.1314ZM9.89498 20.3749H19.1198C20.3404 20.3749 20.7621 20.005 20.7621 19.3244C20.7621 17.4232 18.3431 14.8045 14.5111 14.8045C10.6717 14.8045 8.26011 17.4232 8.26011 19.3244C8.26011 20.005 8.68177 20.3749 9.89498 20.3749Z" fill="#312A41"/>
</g>
<defs>
<clipPath id="clip0_18_4680">
<rect width="28" height="28" fill="white" transform="translate(0.5)"/>
</clipPath>
</defs>
</svg>
