<svg width="25" height="21" viewBox="0 0 25 21" fill="none" xmlns="http://www.w3.org/2000/svg">
<path d="M20.2631 9.48308C22.8385 9.48308 25 7.33076 25 4.73694C25 2.14312 22.8661 0 20.2631 0C17.6692 0 15.5261 2.14312 15.5261 4.73694C15.5261 7.33996 17.6692 9.48308 20.2631 9.48308ZM7.51472 15.4157H18.2211C18.6534 15.4157 19.0489 15.0754 19.0489 14.5879C19.0489 14.1096 18.6534 13.7693 18.2211 13.7693H7.72627C7.28477 13.7693 7.01803 13.4658 6.94444 12.9967L6.79728 12.0401H18.2947C19.2421 12.0401 19.8676 11.6538 20.2171 10.9547L20.2999 10.7892C16.8874 10.7524 14.2108 8.06659 14.2108 4.73694C14.2108 4.4518 14.2292 4.17586 14.266 3.89073H5.62914L5.48197 2.89735C5.3532 2.09713 5.04047 1.69242 4.0195 1.69242H0.864606C0.404709 1.69242 0 2.09713 0 2.56623C0 3.04452 0.404709 3.44923 0.864606 3.44923H3.74356L5.16924 13.1806C5.3716 14.5695 6.10743 15.4157 7.51472 15.4157ZM17.2553 4.73694C17.2553 4.35982 17.5129 4.10228 17.89 4.10228H19.6284V2.37307C19.6284 1.99595 19.8767 1.73841 20.2631 1.73841C20.6494 1.73841 20.8977 1.99595 20.8977 2.37307V4.10228H22.6361C23.0132 4.10228 23.2708 4.35982 23.2708 4.73694C23.2708 5.12325 23.0132 5.3716 22.6361 5.3716H20.8977V7.11921C20.8977 7.49632 20.6494 7.74467 20.2631 7.74467C19.8767 7.74467 19.6284 7.49632 19.6284 7.11921V5.3716H17.89C17.5129 5.3716 17.2553 5.12325 17.2553 4.73694ZM6.65931 18.4235C6.65931 19.3157 7.37675 20.0331 8.26895 20.0331C9.16115 20.0331 9.87859 19.3157 9.87859 18.4235C9.87859 17.5313 9.16115 16.8138 8.26895 16.8138C7.37675 16.8138 6.65931 17.5313 6.65931 18.4235ZM15.149 18.4235C15.149 19.3157 15.8756 20.0331 16.7678 20.0331C17.66 20.0331 18.3683 19.3157 18.3683 18.4235C18.3683 17.5313 17.66 16.8138 16.7678 16.8138C15.8756 16.8138 15.149 17.5313 15.149 18.4235Z" fill="#312A41"/>
</svg>
