<svg width="21" height="20" viewBox="0 0 21 20" fill="currentColor" xmlns="http://www.w3.org/2000/svg">
<path d="M0 16.7875C0 18.6232 1.01098 19.6253 2.91765 19.6253H18.0735C19.9979 19.6253 21 18.6321 21 16.7343V3.29888C21 1.40108 19.9979 0.407837 18.0735 0.407837H6.97931C5.0549 0.407837 4.06166 1.40108 4.06166 3.29888V7.24525H2.11064C0.789274 7.24525 0 7.99018 0 9.25834V16.7875ZM5.56926 17.8517C5.73775 17.5324 5.82644 17.1511 5.82644 16.7165V3.45851C5.82644 2.60716 6.26985 2.18149 7.09459 2.18149H17.9582C18.7918 2.18149 19.2264 2.60716 19.2264 3.45851V16.5746C19.2264 17.426 18.7918 17.8517 17.9582 17.8517H5.56926ZM8.07897 5.95049H16.9916C17.3285 5.95049 17.5857 5.68444 17.5857 5.34745C17.5857 5.01932 17.3285 4.76214 16.9916 4.76214H8.07897C7.72424 4.76214 7.46706 5.01932 7.46706 5.34745C7.46706 5.68444 7.73311 5.95049 8.07897 5.95049ZM8.07897 9.01003H16.9916C17.3285 9.01003 17.5857 8.75285 17.5857 8.42473C17.5857 8.08774 17.3285 7.82169 16.9916 7.82169H8.07897C7.73311 7.82169 7.46706 8.08774 7.46706 8.42473C7.46706 8.75285 7.72424 9.01003 8.07897 9.01003ZM1.76478 16.6899V9.56873C1.76478 9.22287 1.98649 9.01003 2.34122 9.01003H4.06166V16.6899C4.06166 17.3728 3.56503 17.8517 2.91765 17.8517C2.27027 17.8517 1.76478 17.355 1.76478 16.6899ZM8.57559 15.1646H10.7749C11.4666 15.1646 11.8923 14.7478 11.8923 14.0561V11.9986C11.8923 11.3158 11.4666 10.8901 10.7749 10.8901H8.57559C7.88387 10.8901 7.45819 11.3158 7.45819 11.9986V14.0561C7.45819 14.7478 7.88387 15.1646 8.57559 15.1646ZM13.462 12.0784H16.9916C17.3285 12.0784 17.5857 11.8213 17.5857 11.4931C17.5857 11.1561 17.3285 10.8901 16.9916 10.8901H13.462C13.1073 10.8901 12.859 11.1561 12.859 11.4931C12.859 11.8213 13.1161 12.0784 13.462 12.0784ZM13.462 15.1646H16.9916C17.3285 15.1646 17.5857 14.9074 17.5857 14.5793C17.5857 14.2423 17.3285 13.9762 16.9916 13.9762H13.462C13.1161 13.9762 12.859 14.2423 12.859 14.5793C12.859 14.9074 13.1073 15.1646 13.462 15.1646Z" />
</svg>
