<svg width="24" height="22" viewBox="0 0 24 22" fill="currentColor" xmlns="http://www.w3.org/2000/svg">
<path d="M21.0299 13.6666H8.8155L9.08821 14.9999H20.2723C20.914 14.9999 21.3896 15.5958 21.2474 16.2215L21.0175 17.233C21.7963 17.6111 22.3333 18.4094 22.3333 19.3333C22.3333 20.6333 21.27 21.6851 19.9657 21.6663C18.723 21.6485 17.7011 20.64 17.6675 19.3977C17.6492 18.7191 17.9211 18.104 18.3677 17.6665H9.63234C10.0647 18.0901 10.3333 18.6802 10.3333 19.3333C10.3333 20.6588 9.228 21.7262 7.88875 21.664C6.69958 21.6088 5.73246 20.648 5.66996 19.4591C5.62171 18.541 6.10479 17.7318 6.83875 17.3097L3.91179 2.99992H1C0.447708 2.99992 0 2.55221 0 1.99992V1.33325C0 0.78096 0.447708 0.333252 1 0.333252H5.27204C5.74708 0.333252 6.15654 0.66746 6.25175 1.13284L6.63367 2.99992H22.9996C23.6413 2.99992 24.1169 3.59579 23.9747 4.22154L22.005 12.8882C21.9015 13.3435 21.4968 13.6666 21.0299 13.6666ZM16.7929 8.33325H15V5.83325C15 5.55713 14.7761 5.33325 14.5 5.33325H13.5C13.2239 5.33325 13 5.55713 13 5.83325V8.33325H11.2071C10.7617 8.33325 10.5386 8.87184 10.8536 9.1868L13.6465 11.9797C13.8417 12.1749 14.1583 12.1749 14.3536 11.9797L17.1465 9.1868C17.4614 8.87184 17.2383 8.33325 16.7929 8.33325Z" />
</svg>
