<svg width="19" height="24" viewBox="0 0 19 24" fill="none" xmlns="http://www.w3.org/2000/svg">
<path d="M17.2399 0.151247L15.4401 2.25103L12.8903 0.151247C12.7608 0.0531627 12.6028 8.02037e-05 12.4404 8.02037e-05C12.2779 8.02037e-05 12.1199 0.0531627 11.9904 0.151247L9.4407 2.25103L6.89097 0.151247C6.76147 0.0531627 6.60347 8.02037e-05 6.44102 8.02037e-05C6.27857 8.02037e-05 6.12057 0.0531627 5.99107 0.151247L3.44133 2.25103L1.64152 0.151247C1.1447 -0.219027 0.44165 0.132499 0.44165 0.751184V23.2488C0.44165 23.8675 1.1447 24.219 1.64152 23.8488L3.44133 21.749L5.99107 23.8488C6.12057 23.9468 6.27857 23.9999 6.44102 23.9999C6.60347 23.9999 6.76147 23.9468 6.89097 23.8488L9.4407 21.749L11.9904 23.8488C12.1199 23.9468 12.2779 23.9999 12.4404 23.9999C12.6028 23.9999 12.7608 23.9468 12.8903 23.8488L15.4401 21.749L17.2399 23.8488C17.732 24.219 18.4398 23.8675 18.4398 23.2488V0.751184C18.4398 0.132499 17.7367 -0.219027 17.2399 0.151247ZM15.4401 16.8745C15.4401 17.0807 15.2713 17.2494 15.0651 17.2494H3.8163C3.61007 17.2494 3.44133 17.0807 3.44133 16.8745V16.1246C3.44133 15.9183 3.61007 15.7496 3.8163 15.7496H15.0651C15.2713 15.7496 15.4401 15.9183 15.4401 16.1246V16.8745ZM15.4401 12.375C15.4401 12.5812 15.2713 12.7499 15.0651 12.7499H3.8163C3.61007 12.7499 3.44133 12.5812 3.44133 12.375V11.625C3.44133 11.4188 3.61007 11.2501 3.8163 11.2501H15.0651C15.2713 11.2501 15.4401 11.4188 15.4401 11.625V12.375ZM15.4401 7.87543C15.4401 8.08166 15.2713 8.25039 15.0651 8.25039H3.8163C3.61007 8.25039 3.44133 8.08166 3.44133 7.87543V7.12551C3.44133 6.91928 3.61007 6.75055 3.8163 6.75055H15.0651C15.2713 6.75055 15.4401 6.91928 15.4401 7.12551V7.87543Z" fill="#312A41"/>
</svg>
