<svg width="22" height="22" viewBox="0 0 22 22" fill="currentColor" xmlns="http://www.w3.org/2000/svg">
<path d="M1.1 11C1.551 11.319 2.156 11.473 2.75 11.473C3.355 11.473 3.949 11.319 4.4 11C5.082 10.494 5.5 9.713 5.5 8.8C5.5 9.713 5.907 10.494 6.6 11C7.051 11.319 7.656 11.473 8.25 11.473C8.855 11.473 9.449 11.319 9.9 11C10.582 10.494 11 9.713 11 8.8C11 9.713 11.407 10.494 12.1 11C12.551 11.319 13.156 11.473 13.761 11.473C14.355 11.473 14.949 11.319 15.4 11C16.082 10.494 16.5 9.713 16.5 8.8C16.5 9.713 16.907 10.494 17.6 11C18.051 11.319 18.656 11.473 19.25 11.473C19.855 11.473 20.449 11.319 20.9 11C21.593 10.494 22 9.713 22 8.8V7.7L18.7 0H4.4L0 7.7V8.8C0 9.713 0.407 10.494 1.1 11ZM3.3 20.889H8.8V15.389H13.2V20.889H18.7V13.189C18.293 13.134 17.908 12.947 17.6 12.716C16.907 12.221 16.5 11.913 16.5 11C16.5 11.913 16.082 12.221 15.4 12.716C14.949 13.046 14.355 13.189 13.761 13.2C13.156 13.2 12.551 13.046 12.1 12.716C11.407 12.221 11 11.913 11 11C11 11.913 10.582 12.221 9.9 12.716C9.449 13.046 8.855 13.189 8.25 13.2C7.656 13.2 7.051 13.046 6.6 12.716C5.907 12.221 5.5 11.913 5.5 10.989C5.5 11.913 5.082 12.221 4.4 12.716C4.081 12.947 3.707 13.134 3.3 13.2V20.889Z" />
</svg>
