<svg width="16" height="14" viewBox="0 0 16 14" fill="currentColor" xmlns="http://www.w3.org/2000/svg">
<path d="M9.50001 11.6429H7.50001C7.3674 11.6429 7.24023 11.6918 7.14646 11.7788C7.05269 11.8659 7.00001 11.984 7.00001 12.1071V13.0357C7.00001 13.1588 7.05269 13.2769 7.14646 13.364C7.24023 13.4511 7.3674 13.5 7.50001 13.5H9.50001C9.63262 13.5 9.75979 13.4511 9.85356 13.364C9.94733 13.2769 10 13.1588 10 13.0357V12.1071C10 11.984 9.94733 11.8659 9.85356 11.7788C9.75979 11.6918 9.63262 11.6429 9.50001 11.6429ZM5.50002 9.78571H4.00002V0.964286C4.00002 0.841149 3.94734 0.723057 3.85357 0.635986C3.7598 0.548916 3.63263 0.5 3.50002 0.5H2.50002C2.36741 0.5 2.24024 0.548916 2.14647 0.635986C2.0527 0.723057 2.00002 0.841149 2.00002 0.964286V9.78571H0.500023C0.0565865 9.78571 -0.167788 10.286 0.147211 10.5782L2.64721 13.3639C2.74097 13.4509 2.86809 13.4998 3.00064 13.4998C3.1332 13.4998 3.26032 13.4509 3.35408 13.3639L5.85408 10.5782C6.1672 10.2866 5.94439 9.78571 5.50002 9.78571ZM13.5 4.21429H7.50001C7.3674 4.21429 7.24023 4.2632 7.14646 4.35027C7.05269 4.43734 7.00001 4.55544 7.00001 4.67857V5.60714C7.00001 5.73028 7.05269 5.84837 7.14646 5.93544C7.24023 6.02251 7.3674 6.07143 7.50001 6.07143H13.5C13.6326 6.07143 13.7598 6.02251 13.8536 5.93544C13.9473 5.84837 14 5.73028 14 5.60714V4.67857C14 4.55544 13.9473 4.43734 13.8536 4.35027C13.7598 4.2632 13.6326 4.21429 13.5 4.21429ZM11.5 7.92857H7.50001C7.3674 7.92857 7.24023 7.97749 7.14646 8.06456C7.05269 8.15163 7.00001 8.26972 7.00001 8.39286V9.32143C7.00001 9.44456 7.05269 9.56266 7.14646 9.64973C7.24023 9.7368 7.3674 9.78571 7.50001 9.78571H11.5C11.6326 9.78571 11.7598 9.7368 11.8536 9.64973C11.9473 9.56266 12 9.44456 12 9.32143V8.39286C12 8.26972 11.9473 8.15163 11.8536 8.06456C11.7598 7.97749 11.6326 7.92857 11.5 7.92857ZM15.5 0.5H7.50001C7.3674 0.5 7.24023 0.548916 7.14646 0.635986C7.05269 0.723057 7.00001 0.841149 7.00001 0.964286V1.89286C7.00001 2.01599 7.05269 2.13409 7.14646 2.22116C7.24023 2.30823 7.3674 2.35714 7.50001 2.35714H15.5C15.6326 2.35714 15.7598 2.30823 15.8536 2.22116C15.9473 2.13409 16 2.01599 16 1.89286V0.964286C16 0.841149 15.9473 0.723057 15.8536 0.635986C15.7598 0.548916 15.6326 0.5 15.5 0.5Z" />
</svg>
