<svg width="26" height="24" viewBox="0 0 26 24" fill="none" xmlns="http://www.w3.org/2000/svg">
<path d="M25.0856 14.0774H21.6134V18.2441L20.2245 17.3196L18.8356 18.2441V14.0774H15.3634C14.9814 14.0774 14.6689 14.3899 14.6689 14.7718V23.1052C14.6689 23.4871 14.9814 23.7996 15.3634 23.7996H25.0856C25.4675 23.7996 25.78 23.4871 25.78 23.1052V14.7718C25.78 14.3899 25.4675 14.0774 25.0856 14.0774ZM8.41892 11.2996H18.1411C18.5231 11.2996 18.8356 10.9871 18.8356 10.6052V2.27184C18.8356 1.88989 18.5231 1.57739 18.1411 1.57739H14.6689V5.74406L13.28 4.81958L11.8911 5.74406V1.57739H8.41892C8.03697 1.57739 7.72447 1.88989 7.72447 2.27184V10.6052C7.72447 10.9871 8.03697 11.2996 8.41892 11.2996ZM11.1967 14.0774H7.72447V18.2441L6.33558 17.3196L4.9467 18.2441V14.0774H1.47447C1.09253 14.0774 0.780029 14.3899 0.780029 14.7718V23.1052C0.780029 23.4871 1.09253 23.7996 1.47447 23.7996H11.1967C11.5786 23.7996 11.8911 23.4871 11.8911 23.1052V14.7718C11.8911 14.3899 11.5786 14.0774 11.1967 14.0774Z" fill="#312A41"/>
</svg>
