<svg width="26" height="24" viewBox="0 0 26 24" fill="none" xmlns="http://www.w3.org/2000/svg">
<path d="M13.2735 12.9425C14.0547 13.1596 14.7796 13.5241 15.4219 14.0146L22.4315 11.6795C22.7961 11.558 22.9914 11.163 22.8698 10.8028L20.2483 2.9382C20.1268 2.57362 19.7318 2.3783 19.3716 2.49983L16.7197 3.38525L18.1563 7.69948L15.5218 8.57188L14.0851 4.25764L11.4115 5.1474C11.0469 5.26893 10.8516 5.66389 10.9731 6.02414L13.2735 12.9425ZM25.4697 15.0563L25.027 13.7368C24.9054 13.3722 24.5105 13.1769 24.1502 13.2984L14.8837 16.3887C14.1372 15.4339 12.9914 14.8089 11.6936 14.7828L7.37939 1.84011C7.18842 1.27153 6.65891 0.889587 6.05995 0.889587H1.19884C0.816895 0.889587 0.504395 1.20209 0.504395 1.58403V2.97292C0.504395 3.35487 0.816895 3.66737 1.19884 3.66737H5.05735L9.05908 15.6769C7.92627 16.5623 7.24919 18.0033 7.49658 19.6049C7.76134 21.3149 9.14155 22.7429 10.8516 23.0424C13.4645 23.5068 15.7257 21.5319 15.7735 19.0233L25.0313 15.933C25.3915 15.8115 25.5912 15.4208 25.4697 15.0563ZM11.6155 21.0285C10.4653 21.0285 9.53217 20.0953 9.53217 18.9451C9.53217 17.795 10.4653 16.8618 11.6155 16.8618C12.7657 16.8618 13.6988 17.795 13.6988 18.9451C13.6988 20.0953 12.7657 21.0285 11.6155 21.0285Z" fill="#312A41"/>
</svg>
