<svg width="18" height="22" viewBox="0 0 18 22" fill="currentColor" xmlns="http://www.w3.org/2000/svg">
<path d="M3.30964 22H14.132C16.3147 22 17.4416 20.8528 17.4416 18.6599V9.5736H9.82741C8.55838 9.5736 7.94924 8.96447 7.94924 7.69543V0H3.30964C1.13706 0 0 1.14721 0 3.35025V18.6599C0 20.8528 1.13706 22 3.30964 22ZM10.0203 8.09137H17.3401C17.2792 7.62437 16.9442 7.18782 16.4162 6.64975L10.8629 1.02538C10.3553 0.507614 9.89848 0.162437 9.43147 0.101523V7.50254C9.44162 7.89848 9.63452 8.09137 10.0203 8.09137Z" />
<path d="M8.59932 20.392C11.0663 20.392 13.1026 18.3557 13.1026 15.8931C13.1026 13.4304 11.062 11.3942 8.59496 11.3942C6.13231 11.3942 4.1004 13.4304 4.1004 15.8931C4.1004 18.3557 6.13666 20.392 8.59932 20.392ZM8.59932 19.4957C6.60222 19.4957 5.00541 17.8902 5.00541 15.8931C5.00541 13.896 6.60222 12.2948 8.59496 12.2948C10.5921 12.2948 12.1976 13.896 12.2019 15.8931C12.2063 17.8902 10.5964 19.4957 8.59932 19.4957ZM8.59496 18.3383C8.70809 18.3383 8.79511 18.2557 8.79511 18.1382V17.8467C9.49997 17.7814 10.0308 17.3768 10.0308 16.7154C10.0308 16.1237 9.6479 15.7756 8.89083 15.6364L8.79511 15.6146V14.5356C9.07357 14.5834 9.26502 14.7488 9.34768 15.0055C9.41295 15.1491 9.50432 15.2317 9.66095 15.2317C9.83499 15.2317 9.95682 15.1143 9.95682 14.9489C9.95682 14.8967 9.94377 14.8488 9.93507 14.7966C9.81759 14.3485 9.37814 14.0265 8.79511 13.9656V13.6741C8.79511 13.5566 8.70809 13.4739 8.59496 13.4739C8.48184 13.4739 8.39917 13.5566 8.39917 13.6741V13.9656C7.71172 14.0352 7.22441 14.4529 7.22441 15.0577C7.22441 15.6233 7.60294 15.954 8.3252 16.1193L8.39917 16.1367V17.2854C8.04674 17.2332 7.84225 17.0461 7.77263 16.7894C7.71172 16.6327 7.61164 16.5544 7.46371 16.5544C7.28097 16.5544 7.16349 16.6763 7.16349 16.8503C7.16349 16.8982 7.17655 16.946 7.1896 17.0026C7.31578 17.4638 7.77698 17.7858 8.39917 17.8423V18.1382C8.39917 18.26 8.48184 18.3383 8.59496 18.3383ZM8.39917 15.5145L8.36871 15.5058C8.02064 15.4058 7.85965 15.2535 7.85965 15.0185C7.85965 14.7792 8.06414 14.5834 8.39917 14.5312V15.5145ZM8.79511 16.2368L8.87778 16.2542C9.25631 16.3586 9.39119 16.5153 9.39119 16.7633C9.39119 17.0374 9.19105 17.2375 8.79511 17.2854V16.2368Z" />
</svg>
