<svg width="25" height="18" viewBox="0 0 25 18" fill="currentColor" xmlns="http://www.w3.org/2000/svg">
<path d="M24.2695 8.26953L21.9844 5.98438C21.5156 5.51563 20.8789 5.25391 20.2148 5.25391H18.75V1.5C18.75 0.808594 18.1914 0.25 17.5 0.25H1.25C0.558594 0.25 0 0.808594 0 1.5V14.625C0 16.3516 1.39844 17.75 3.125 17.75C4.15234 17.75 5.05469 17.2461 5.625 16.4844C6.19531 17.25 7.09766 17.75 8.125 17.75C9.85156 17.75 11.25 16.3516 11.25 14.625C11.25 14.4102 11.2266 14.2031 11.1875 14H17.5625C17.5195 14.2031 17.5 14.4102 17.5 14.625C17.5 16.3516 18.8984 17.75 20.625 17.75C22.3516 17.75 23.75 16.3516 23.75 14.625C23.75 14.4102 23.7266 14.2031 23.6875 14H24.375C24.7188 14 25 13.7188 25 13.375V10.0352C25 9.37109 24.7383 8.73828 24.2695 8.26953ZM3.125 15.875C2.4375 15.875 1.875 15.3125 1.875 14.625C1.875 13.9375 2.4375 13.375 3.125 13.375C3.8125 13.375 4.375 13.9375 4.375 14.625C4.375 15.3125 3.8125 15.875 3.125 15.875ZM8.125 15.875C7.4375 15.875 6.875 15.3125 6.875 14.625C6.875 13.9375 7.4375 13.375 8.125 13.375C8.8125 13.375 9.375 13.9375 9.375 14.625C9.375 15.3125 8.8125 15.875 8.125 15.875ZM18.75 7.125H20.2148C20.3828 7.125 20.5391 7.19141 20.6562 7.30859L22.3477 9H18.75V7.125ZM20.625 15.875C19.9375 15.875 19.375 15.3125 19.375 14.625C19.375 13.9375 19.9375 13.375 20.625 13.375C21.3125 13.375 21.875 13.9375 21.875 14.625C21.875 15.3125 21.3125 15.875 20.625 15.875Z" />
</svg>
